<?xml version="1.0" encoding="iso-8859-1"?>
<!-- Generator: Adobe Illustrator 16.0.0, SVG Export Plug-In . SVG Version: 6.00 Build 0)  -->
<!DOCTYPE svg PUBLIC "-//W3C//DTD SVG 1.1//EN" "http://www.w3.org/Graphics/SVG/1.1/DTD/svg11.dtd">
<svg version="1.1" id="Capa_1" xmlns="http://www.w3.org/2000/svg" xmlns:xlink="http://www.w3.org/1999/xlink" x="0px" y="0px"
	 width="321.548px" height="321.548px" viewBox="0 0 321.548 321.548" style="enable-background:new 0 0 321.548 321.548;"
	 xml:space="preserve">
<g>
	<path d="M315.991,173.362c0-6.918-4.373-12.838-10.515-15.121c6.142-2.287,10.515-8.2,10.515-15.121
		c0-8.893-7.239-16.127-16.127-16.127h-95.413v-18.142h30.236c8.889,0,16.127-7.236,16.127-16.126v-39.01
		c0-8.89-7.238-16.126-16.127-16.126h-73.911c-1.641,0-3.215,0.241-4.703,0.698V16.126C156.073,7.234,148.837,0,139.946,0
		c-8.889,0-16.125,7.234-16.125,16.126v21.462h-11.089c-8.89,0-16.126,7.236-16.126,16.126v19.449
		c-2.708-2.058-6.084-3.284-9.745-3.284H45.873c-8.89,0-16.126,7.234-16.126,16.126v7.391h-8.063
		c-8.89,0-16.126,7.234-16.126,16.126c0,8.89,7.236,16.126,16.126,16.126h8.063v1.344h-8.063c-8.89,0-16.126,7.234-16.126,16.127
		c0,6.916,4.376,12.834,10.514,15.121c-6.138,2.283-10.514,8.197-10.514,15.121c0,8.887,7.236,16.127,16.126,16.127h8.063v1.343
		h-8.063c-8.89,0-16.126,7.234-16.126,16.126c0,4.997,2.283,9.471,5.864,12.437c-3.581,2.961-5.864,7.433-5.864,12.43
		c0,8.894,7.236,16.127,16.126,16.127h8.063v19.485c0,8.894,7.236,16.126,16.126,16.126H86.86c5.601,0,10.546-2.87,13.438-7.223
		c2.893,4.353,7.837,7.223,13.439,7.223h68.012l4.849,24.925c1.459,7.57,8.115,13.061,15.828,13.061h97.429
		c8.887,0,16.126-7.238,16.126-16.127c0-8.892-7.239-16.125-16.126-16.125h-84.122l-4.861-24.936
		c-1.459-7.569-8.115-13.055-15.826-13.055h-65.177v-19.486c0-3.218-0.944-6.215-2.575-8.734h20.717v8.734
		c0,8.889,7.236,16.127,16.127,16.127h83.989c8.888,0,16.127-7.238,16.127-16.127v-14.782h35.611
		c8.888,0,16.127-7.238,16.127-16.127c0-5.827-3.108-10.938-7.743-13.779C312.883,184.298,315.991,179.189,315.991,173.362z
		 M176.903,81.356V69.847h41.659v6.758h-30.238C183.868,76.605,179.827,78.427,176.903,81.356z M180.525,157.235h-11.948
		c2.451-1.362,4.514-3.343,5.968-5.729C176.01,153.892,178.074,155.874,180.525,157.235z M182.951,92.73
		c0-2.967,2.397-5.375,5.373-5.375h40.989v-28.26h-63.161v84.03c0,2.966-2.4,5.375-5.376,5.375H92.241v19.485h207.624
		c2.977,0,5.376,2.41,5.376,5.376s-2.399,5.375-5.376,5.375H92.241v22.846h71.896c2.976,0,5.375,2.41,5.375,5.375v19.485h73.239
		V200.91c0-2.966,2.399-5.375,5.375-5.375h51.738c2.977,0,5.376,2.409,5.376,5.375s-2.399,5.376-5.376,5.376h-46.362v25.533
		c0,2.966-2.399,5.375-5.376,5.375h-83.989c-2.975,0-5.376-2.409-5.376-5.375v-19.485h-66.52v14.109h21.501
		c2.973,0,5.375,2.41,5.375,5.376v30.237h75.927c2.576,0,4.792,1.821,5.274,4.351l6.547,33.628h92.998
		c2.977,0,5.376,2.41,5.376,5.376c0,2.971-2.399,5.375-5.376,5.375h-97.429c-2.578,0-4.793-1.815-5.276-4.346l-6.545-33.634h-76.872
		c-2.974,0-5.376-2.408-5.376-5.374v-30.238H92.241v30.238c0,2.966-2.402,5.374-5.375,5.374H45.878
		c-2.975,0-5.375-2.408-5.375-5.374v-30.238H21.688c-2.974,0-5.375-2.409-5.375-5.375s2.402-5.376,5.375-5.376h18.814v-14.109
		H21.688c-2.974,0-5.375-2.41-5.375-5.376c0-2.965,2.402-5.375,5.375-5.375h18.814v-22.846H21.688c-2.974,0-5.375-2.409-5.375-5.375
		s2.402-5.376,5.375-5.376h18.814v-19.485H21.688c-2.974,0-5.375-2.409-5.375-5.375c0-2.969,2.402-5.375,5.375-5.375h18.814v-22.845
		H21.688c-2.974,0-5.375-2.41-5.375-5.375c0-2.969,2.402-5.375,5.375-5.375h18.814V86.012c0-2.968,2.401-5.375,5.375-5.375h40.987
		c2.974,0,5.375,2.407,5.375,5.375v18.142h37.627V91.388h-17.136c-2.974,0-5.375-2.41-5.375-5.375V53.721
		c0-2.966,2.401-5.375,5.375-5.375h21.84V16.132c0-2.968,2.401-5.375,5.375-5.375c2.975,0,5.376,2.407,5.376,5.375v37.589
		c0,2.968-2.401,5.375-5.376,5.375h-21.84v21.541h17.137c2.974,0,5.375,2.407,5.375,5.375v23.518c0,2.966-2.402,5.375-5.375,5.375
		H92.241v22.845h63.16v-84.03c0-2.966,2.402-5.375,5.375-5.375h73.911c2.978,0,5.375,2.41,5.375,5.375v39.01
		c0,2.967-2.397,5.376-5.375,5.376H193.7v39.644h106.164c2.977,0,5.376,2.406,5.376,5.375c0,2.966-2.399,5.375-5.376,5.375h-111.54
		c-2.976,0-5.373-2.409-5.373-5.375V92.73z M164.137,190.832h-61.146v-1.343h133.766c-2.939,2.918-4.756,6.96-4.756,11.421v14.784
		h-51.738v-8.736C180.263,198.066,173.023,190.832,164.137,190.832z M144.65,69.148v3.77c-2.651-1.908-5.903-3.032-9.407-3.032
		h-6.386v-0.039h11.089C141.587,69.847,143.163,69.605,144.65,69.148z M144.65,122.624V127h-41.66v-1.344h32.252
		C138.748,125.655,141.999,124.532,144.65,122.624z"/>
</g>
<g>
</g>
<g>
</g>
<g>
</g>
<g>
</g>
<g>
</g>
<g>
</g>
<g>
</g>
<g>
</g>
<g>
</g>
<g>
</g>
<g>
</g>
<g>
</g>
<g>
</g>
<g>
</g>
<g>
</g>
</svg>
