<?xml version="1.0" encoding="iso-8859-1"?>
<!-- Generator: Adobe Illustrator 19.0.0, SVG Export Plug-In . SVG Version: 6.00 Build 0)  -->
<svg version="1.1" id="Layer_1" xmlns="http://www.w3.org/2000/svg" xmlns:xlink="http://www.w3.org/1999/xlink" x="0px" y="0px"
	 viewBox="0 0 512.055 512.055" style="enable-background:new 0 0 512.055 512.055;" xml:space="preserve">
<g>
	<g>
		<path d="M357.236,85c-19.782-19.782-48.873-29.091-79.127-26.764c-5.818,0-10.473,5.818-10.473,12.8
			c1.164,6.982,5.818,11.636,12.8,10.473c23.273-2.327,45.382,4.655,60.509,19.782c15.127,15.127,22.109,36.073,19.782,60.509
			c-1.164,5.818,4.655,11.636,10.473,12.8h1.164c5.818,0,10.473-4.655,11.636-10.473C386.327,133.873,377.018,104.782,357.236,85z"
			/>
	</g>
</g>
<g>
	<g>
		<path d="M395.636,46.6C365.382,16.346,323.491-1.109,279.273,0.055c-6.982,0-11.636,5.818-11.636,11.636
			c0,6.982,5.818,11.636,11.636,11.636c38.4-1.164,73.309,13.964,100.073,39.564c26.764,26.764,40.727,61.673,39.564,100.073
			c0,6.982,4.655,11.636,11.636,11.636c5.818,0,11.636-4.655,11.636-11.636C443.345,118.746,425.891,78.018,395.636,46.6z"/>
	</g>
</g>
<g>
	<g>
		<path d="M368.873,306.091l-76.8-76.8l22.109-87.273c1.164-3.491,0-8.145-3.491-10.473c-2.327-2.327-6.982-3.491-10.473-3.491
			l-87.273,22.109l-76.8-76.8c-4.655-4.655-11.636-4.655-16.291,0c-32.582,32.582-50.036,76.8-50.036,124.509
			c0,46.545,18.618,90.764,51.2,123.345c18.618,18.618,40.727,32.582,65.164,40.727v33.745c0,3.491,1.164,5.818,3.491,8.146
			l45.382,45.382c10.473,10.473,17.455,24.436,19.782,39.564H140.8c2.327-15.127,9.309-29.091,19.782-39.564l10.473-10.473
			c4.655-4.655,4.655-11.636,0-16.291c-4.655-4.655-11.636-4.655-16.291,0l-10.473,10.473
			c-17.455,17.455-27.927,41.891-27.927,67.491c0,6.982,4.655,11.636,11.636,11.636h139.636c6.982,0,11.636-4.655,11.636-11.636
			c0-25.6-10.473-50.036-27.927-67.491l-41.891-41.891V353.8c0-4.655-3.491-9.309-8.145-11.636c-24.436-6.982-46.545-19.782-64-38.4
			c-27.927-27.927-44.218-65.164-44.218-105.891c0-37.236,12.8-72.145,34.909-100.073l216.436,216.436
			c-26.764,23.273-61.673,34.909-98.909,34.909c0,0,0,0-1.164,0c-6.982,0-11.636,4.655-11.636,11.636s4.655,11.636,11.636,11.636
			c0,0,0,0,1.164,0c47.709,0,91.927-17.455,123.345-50.036C373.527,317.727,373.527,310.746,368.873,306.091z M273.455,209.509
			l-40.727-40.727l53.527-12.8L273.455,209.509z"/>
	</g>
</g>
<g>
</g>
<g>
</g>
<g>
</g>
<g>
</g>
<g>
</g>
<g>
</g>
<g>
</g>
<g>
</g>
<g>
</g>
<g>
</g>
<g>
</g>
<g>
</g>
<g>
</g>
<g>
</g>
<g>
</g>
</svg>
