<?xml version="1.0" encoding="iso-8859-1"?>
<!-- Generator: Adobe Illustrator 19.0.0, SVG Export Plug-In . SVG Version: 6.00 Build 0)  -->
<svg version="1.1" id="Layer_1" xmlns="http://www.w3.org/2000/svg" xmlns:xlink="http://www.w3.org/1999/xlink" x="0px" y="0px"
	 viewBox="0 0 512 512" style="enable-background:new 0 0 512 512;" xml:space="preserve">
<g>
	<g>
		<path d="M256,36.479c-15.805,0-28.662,12.858-28.662,28.662c0,15.804,12.858,28.662,28.662,28.662s28.662-12.858,28.662-28.662
			C284.662,49.337,271.804,36.479,256,36.479z M256,78.169c-7.183,0-13.028-5.844-13.028-13.028c0-7.184,5.844-13.028,13.028-13.028
			c7.184,0,13.028,5.844,13.028,13.028C269.028,72.325,263.184,78.169,256,78.169z"/>
	</g>
</g>
<g>
	<g>
		<path d="M394.341,311.227l-49.429,24.761v37.659h24.322c-7.4,23.404-29.479,40.127-54.668,40.127h-32.51V207.928h40.959
			l30.523-52.112h-71.483v-30.99c22.983-10.072,39.084-33.028,39.084-59.685C321.141,29.221,291.919,0,256,0
			c-35.918,0-65.14,29.221-65.14,65.141c0,26.656,16.102,49.613,39.084,59.685v30.99h-71.148l29.034,52.112h42.114v205.844h-29.462
			c-25.188,0-47.267-16.723-54.667-40.127h21.273v-37.659l-49.429-24.761l-49.429,24.761v37.659h24.201
			c3.85,24.29,15.786,46.604,34.124,63.431c20.246,18.578,46.499,28.808,73.927,28.808h29.462v30.482L256.001,512l26.056-15.634
			v-30.482h32.51c27.427,0,53.681-10.23,73.926-28.808c18.339-16.828,30.274-39.142,34.124-63.431h21.152v-37.659L394.341,311.227z
			 M206.493,65.141c0-27.298,22.209-49.507,49.507-49.507s49.507,22.209,49.507,49.507c0,27.297-22.209,49.507-49.507,49.507
			S206.493,92.438,206.493,65.141z M266.422,129.437v26.379h-20.845v-26.379c3.396,0.548,6.875,0.844,10.422,0.844
			C259.548,130.281,263.027,129.985,266.422,129.437z M197.016,192.295l-11.614-20.845h140.861l-12.209,20.845H197.016z
			 M266.422,207.928v205.844h-20.845V207.928H266.422z M83.866,358.012c0,0,0-12.369,0-12.369l33.795-16.929l33.795,16.929v12.369
			H83.866z M266.422,487.516L256,493.769l-10.422-6.253v-21.631h20.845V487.516z M377.922,425.559
			c-17.353,15.922-39.852,24.692-63.355,24.692H200.483c-23.503,0-46.003-8.769-63.355-24.692
			c-15.107-13.863-25.167-32.053-28.859-51.913h21.313c7.834,32.222,37.187,55.76,70.901,55.76h114.084
			c33.715,0,63.068-23.537,70.901-55.76h21.313C403.088,393.505,393.029,411.695,377.922,425.559z M360.546,358.012v-12.369
			l33.795-16.929l33.795,16.929v12.369H360.546z"/>
	</g>
</g>
<g>
</g>
<g>
</g>
<g>
</g>
<g>
</g>
<g>
</g>
<g>
</g>
<g>
</g>
<g>
</g>
<g>
</g>
<g>
</g>
<g>
</g>
<g>
</g>
<g>
</g>
<g>
</g>
<g>
</g>
</svg>
