<?xml version="1.0" encoding="iso-8859-1"?>
<!-- Generator: Adobe Illustrator 19.0.0, SVG Export Plug-In . SVG Version: 6.00 Build 0)  -->
<svg version="1.1" id="Layer_1" xmlns="http://www.w3.org/2000/svg" xmlns:xlink="http://www.w3.org/1999/xlink" x="0px" y="0px"
	 viewBox="0 0 502.401 502.401" style="enable-background:new 0 0 502.401 502.401;" xml:space="preserve">
<g>
	<g>
		<path d="M398.933,181.794c-4.267-25.6-24.533-107.733-89.6-131.2c-10.667-3.2-22.4,2.133-26.667,12.8
			c-3.2,10.667,2.133,22.4,12.8,26.667c35.2,12.8,52.267,55.467,58.667,82.133c-2.133,0-4.267,0-5.333,0h-94.933v-56.533
			c0-11.733-9.6-21.333-21.333-21.333s-21.333,9.6-21.333,21.333v56.533H82.134v-21.333c0-11.733-9.6-21.333-21.333-21.333
			s-21.333,9.6-21.333,21.333v21.333H21.333C9.6,172.195,0,181.795,0,193.528v167.467c0,11.733,9.6,21.333,21.333,21.333h18.133
			c3.2,39.467,36.267,70.4,76.8,70.4c40.533,0,73.6-32,76.8-70.4h112c3.2,39.467,36.267,70.4,76.8,70.4c40.533,0,73.6-32,76.8-70.4
			h22.4c11.733,0,21.333-8.533,21.333-21.333v-10.667C501.333,272.461,458.667,206.328,398.933,181.794z M116.267,411.128
			c-19.2,0-35.2-16-35.2-35.2c0-19.2,16-35.2,35.2-35.2s35.2,16,35.2,35.2C151.467,395.128,135.467,411.128,116.267,411.128z
			 M380.8,411.128c-19.2,0-35.2-16-35.2-35.2c0-19.2,16-35.2,35.2-35.2c19.2,0,35.2,16,35.2,35.2
			C416,395.128,400,411.128,380.8,411.128z M449.067,339.661c-12.8-24.533-38.4-40.533-68.267-40.533
			c-29.867,0-54.4,16-68.267,40.533H183.467c-12.8-24.533-38.4-40.533-68.267-40.533s-54.4,16-68.267,40.533h-6.4V212.728h307.2
			c57.6,0,105.6,56.533,109.867,126.933H449.067z"/>
	</g>
</g>
<g>
</g>
<g>
</g>
<g>
</g>
<g>
</g>
<g>
</g>
<g>
</g>
<g>
</g>
<g>
</g>
<g>
</g>
<g>
</g>
<g>
</g>
<g>
</g>
<g>
</g>
<g>
</g>
<g>
</g>
</svg>
